<svg width="92" height="103" xmlns="http://www.w3.org/2000/svg" xmlns:xlink="http://www.w3.org/1999/xlink" xml:space="preserve" overflow="hidden"><defs><clipPath id="clip0"><rect x="33" y="36" width="92" height="103"/></clipPath></defs><g clip-path="url(#clip0)" transform="translate(-33 -36)"><path d="M54.7275 44.8959C54.7307 47.9148 53.5019 50.8043 51.3252 52.8959L58.3191 66.6545 58.4538 66.6545C63.0655 66.6553 66.8958 70.2131 67.2364 74.8122L77.7015 79.3697C80.0204 74.9498 79.9315 70.0053 79.3496 56.5534 79.3296 56.1235 79.2694 55.6935 79.2751 55.2607 79.5617 37.7214 62.5413 21.1051 43.6949 22.5841L45.0593 33.8633C50.5945 34.5927 54.7307 39.3128 54.7275 44.8959Z" fill="#51549B" transform="matrix(1 0 0 1.01234 32.4645 35.6315)"/><path d="M9.74565 73.293C9.7408 65.9777 15.6671 60.0435 22.9823 60.0386 24.6536 60.0375 26.3099 60.3528 27.8639 60.9676L35.5143 52.4975C31.3108 48.0277 31.5269 40.9965 35.997 36.793 37.4293 35.4461 39.1935 34.5033 41.1094 34.061L39.7909 23.1688C38.3801 23.4693 36.9922 23.8687 35.6375 24.3641 29.5436 26.5941 23.5042 28.8557 17.7428 31.8654 8.35259 36.7812 3.38518 44.807 1.56217 55.0342 0.673596 60.0103 0.573273 65.0407 0.573273 70.0798 0.596416 76.0768 2.37726 81.9357 5.69547 86.9312L12.612 81.5195C10.7521 79.1814 9.74146 76.2806 9.74565 73.293Z" fill="#51549B" transform="matrix(1 0 0 1.01234 32.4645 35.6315)"/><path d="M43.6118 56.0117C41.9066 56.014 40.224 55.6216 38.6959 54.8651L31.3409 63.0085C34.4437 65.5203 36.2443 69.3007 36.2395 73.293 36.2386 73.9087 36.1956 74.5235 36.1105 75.1332L49.7343 74.2131C50.1382 71.4006 51.8735 68.9556 54.395 67.6462L48.0202 55.1088C46.628 55.7081 45.1275 56.0157 43.6118 56.0117Z" fill="#51549B" transform="matrix(1 0 0 1.01234 32.4645 35.6315)"/><path d="M58.4538 84.2712C54.6249 84.2703 51.2346 81.7972 50.064 78.1515L34.8722 79.1805C31.6272 85.7367 23.6819 88.4211 17.1257 85.1761 16.5758 84.9041 16.0455 84.5939 15.5386 84.2482L8.04016 90.0985C14.4494 97.7632 24.2753 102.639 34.6802 102.066L45.8246 102.097C52.8415 102.212 59.9759 100.913 64.4216 95.5503 69.6269 89.2701 73.1439 85.6872 75.4772 82.7061L66.5857 78.8251C65.2276 82.1194 62.017 84.2697 58.4538 84.2712Z" fill="#51549B" transform="matrix(1 0 0 1.01234 32.4645 35.6315)"/><path d="M63.6735 23.9141C62.1858 23.9542 60.5864 23.7421 58.9812 23.6275 57.3761 23.5128 57.4477 22.9223 58.0812 21.9621 59.5144 19.7779 60.9476 17.5938 62.6674 15.5701 66.471 11.0412 70.6301 6.87928 76.0046 3.86386 80.6114 1.22631 85.9024 0.0283302 91.1963 0.424222 92.5521 0.515946 92.7126 1.05482 92.3429 2.09245 91.1161 5.60948 89.531 8.97173 87.2895 12.0445 83.91 16.6765 79.6477 20.2967 73.9523 22.3233 70.6551 23.4893 67.169 24.0288 63.6735 23.9141Z" fill="#1A9F84" transform="matrix(1 0 0 1.01234 32.4645 35.6315)"/></g></svg>